<?xml version="1.0" encoding="UTF-8"?>
<svg width="20px" height="20px" viewBox="0 0 20 20" version="1.1" xmlns="http://www.w3.org/2000/svg" xmlns:xlink="http://www.w3.org/1999/xlink">
    <!-- Generator: Sketch 47 (45396) - http://www.bohemiancoding.com/sketch -->
    <title>icon/可见</title>
    <desc>Created with Sketch.</desc>
    <defs></defs>
    <g id="Symbols" stroke="none" stroke-width="1" fill="none" fill-rule="evenodd">
        <g id="icon/可见" fill="#D8D8D8">
            <path d="M10.0585938,6.51953125 C11.1002656,6.51953125 11.9856734,6.88736611 12.7148438,7.62304688 C13.4440141,8.35872764 13.8085938,9.24088027 13.8085938,10.2695312 C13.8085938,11.3112031 13.4440141,12.1966109 12.7148438,12.9257812 C11.9856734,13.6549516 11.1002656,14.0195312 10.0585938,14.0195312 C9.02994277,14.0195312 8.14779014,13.6549516 7.41210938,12.9257812 C6.67642861,12.1966109 6.30859375,11.3112031 6.30859375,10.2695312 C6.30859375,9.24088027 6.67642861,8.35872764 7.41210938,7.62304688 C8.14779014,6.88736611 9.02994277,6.51953125 10.0585938,6.51953125 Z M10.0585938,12.7695312 C10.7487014,12.7695312 11.334633,12.5221379 11.8164062,12.0273438 C12.2981795,11.5325496 12.5390625,10.9401076 12.5390625,10.25 C12.5390625,9.55989238 12.2949243,8.97070557 11.8066406,8.48242188 C11.3183569,7.99413818 10.7291701,7.75 10.0390625,7.75 C9.34895488,7.75 8.75976807,7.99413818 8.27148438,8.48242188 C7.78320068,8.97070557 7.5390625,9.55989238 7.5390625,10.25 C7.5390625,10.9401076 7.78971104,11.5325496 8.29101562,12.0273438 C8.79232021,12.5221379 9.38150703,12.7695312 10.0585938,12.7695312 Z M20,10.1132812 C20,10.139323 20.0032552,10.1653645 20.0097656,10.1914062 C20.0162761,10.217448 20.0195312,10.2434895 20.0195312,10.2695312 C20.0195312,10.295573 20.0162761,10.3248696 20.0097656,10.3574219 C20.0032552,10.3899741 20,10.4192707 20,10.4453125 C19.9869791,10.4583334 19.9804688,10.4713541 19.9804688,10.484375 L19.9804688,10.5429688 L19.9609375,10.5625 L19.9609375,10.5917969 C19.9609375,10.5983073 19.9544271,10.6080729 19.9414062,10.6210938 C19.4986957,11.6627656 18.9257848,12.5872355 18.2226562,13.3945312 C17.5195277,14.201827 16.7317752,14.8821587 15.859375,15.4355469 C14.9869748,15.9889351 14.0527394,16.4121079 13.0566406,16.7050781 C12.0605419,16.9980483 11.0416719,17.1445312 10,17.1445312 C8.95832813,17.1445312 7.93945811,16.9980483 6.94335938,16.7050781 C5.94726064,16.4121079 5.0130252,15.9889351 4.140625,15.4355469 C3.2682248,14.8821587 2.48047227,14.201827 1.77734375,13.3945312 C1.07421523,12.5872355 0.494793945,11.6627656 0.0390625,10.6210938 L0.0390625,10.5625 L0.029296875,10.5527344 C0.0227864258,10.5462239 0.01953125,10.5364584 0.01953125,10.5234375 L0.01953125,10.484375 C0.01953125,10.4713541 0.0130208984,10.451823 0,10.4257812 C0,10.3997395 -0.00325517578,10.373698 -0.009765625,10.3476562 C-0.0162760742,10.3216145 -0.01953125,10.295573 -0.01953125,10.2695312 C-0.01953125,10.2434895 -0.0162760742,10.2141929 -0.009765625,10.1816406 C-0.00325517578,10.1490884 0,10.1197918 0,10.09375 C0.0130208984,10.0807291 0.01953125,10.0677084 0.01953125,10.0546875 L0.01953125,9.99609375 L0.0390625,9.9765625 L0.0390625,9.91796875 C0.494793945,8.87629688 1.07747041,7.94857178 1.78710938,7.13476562 C2.49674834,6.32095947 3.28775605,5.63411738 4.16015625,5.07421875 C5.03255645,4.51432012 5.97004707,4.08789209 6.97265625,3.79492188 C7.97526543,3.50195166 8.99739062,3.35546875 10.0390625,3.35546875 C11.0807344,3.35546875 12.0996044,3.50195166 13.0957031,3.79492188 C14.0918019,4.08789209 15.019527,4.51432012 15.8789062,5.07421875 C16.7382855,5.63411738 17.5195277,6.32095947 18.2226562,7.13476562 C18.9257848,7.94857178 19.4986957,8.87629688 19.9414062,9.91796875 C19.9544271,9.93098965 19.9609375,9.94075518 19.9609375,9.94726562 L19.9609375,9.9765625 L19.9707031,9.98632812 C19.9772136,9.99283857 19.9804688,10.0026041 19.9804688,10.015625 L19.9804688,10.0546875 C19.9804688,10.0677084 19.9869791,10.0872395 20,10.1132812 Z M10,15.8945312 C10.8854211,15.8945312 11.7610634,15.7773449 12.6269531,15.5429687 C13.4928429,15.3085926 14.3066368,14.9570336 15.0683594,14.4882812 C15.8300819,14.0195289 16.5266896,13.4335973 17.1582031,12.7304688 C17.7897167,12.0273402 18.3138,11.2070359 18.7304688,10.2695312 C18.3138,9.33202656 17.7929719,8.51172227 17.1679688,7.80859375 C16.5429656,7.10546523 15.8496132,6.51627842 15.0878906,6.04101562 C14.3261681,5.56575283 13.5156293,5.2076835 12.65625,4.96679688 C11.7968707,4.72591025 10.9244836,4.60546875 10.0390625,4.60546875 C9.15364141,4.60546875 8.27799912,4.72591025 7.41210938,4.96679688 C6.54621963,5.2076835 5.72917051,5.56575283 4.9609375,6.04101562 C4.19270449,6.51627842 3.48958652,7.10546523 2.8515625,7.80859375 C2.21353848,8.51172227 1.6862,9.33202656 1.26953125,10.2695312 C1.6862,11.2070359 2.21353848,12.0273402 2.8515625,12.7304688 C3.48958652,13.4335973 4.18944932,14.0195289 4.95117188,14.4882812 C5.71289443,14.9570336 6.5234332,15.3085926 7.3828125,15.5429687 C8.2421918,15.7773449 9.11457891,15.8945312 10,15.8945312 Z" id="Eye---simple-line-icons"></path>
        </g>
    </g>
</svg>