<?xml version="1.0" encoding="UTF-8"?>
<svg width="20px" height="20px" viewBox="0 0 20 20" version="1.1" xmlns="http://www.w3.org/2000/svg" xmlns:xlink="http://www.w3.org/1999/xlink">
    <!-- Generator: Sketch 47 (45396) - http://www.bohemiancoding.com/sketch -->
    <title>icon/登录密码 copy 2</title>
    <desc>Created with Sketch.</desc>
    <defs></defs>
    <g id="Symbols" stroke="none" stroke-width="1" fill="none" fill-rule="evenodd">
        <g id="icon/登录密码-copy-2" fill="#000000">
            <path d="M15.625,7.75 C16.3151076,7.75 16.9042944,7.99413818 17.3925781,8.48242188 C17.8808618,8.97070557 18.125,9.55989238 18.125,10.25 L18.125,17.75 C18.125,18.4401076 17.8808618,19.0292944 17.3925781,19.5175781 C16.9042944,20.0058618 16.3151076,20.25 15.625,20.25 L4.375,20.25 C3.68489238,20.25 3.09570557,20.0058618 2.60742188,19.5175781 C2.11913818,19.0292944 1.875,18.4401076 1.875,17.75 L1.875,10.25 C1.875,9.55989238 2.11913818,8.97070557 2.60742188,8.48242188 C3.09570557,7.99413818 3.68489238,7.75 4.375,7.75 L5,7.75 L5,5.3671875 C5,4.66405898 5.1204415,4.00000312 5.36132812,3.375 C5.60221475,2.74999688 5.94075303,2.20638252 6.37695312,1.74414062 C6.81315322,1.28189873 7.33723652,0.917319043 7.94921875,0.650390625 C8.56120098,0.383462207 9.23827754,0.25 9.98046875,0.25 C10.7096391,0.25 11.3834604,0.383462207 12.0019531,0.650390625 C12.6204458,0.917319043 13.1510395,1.27864355 13.59375,1.734375 C14.0364605,2.19010645 14.3815092,2.73046563 14.6289062,3.35546875 C14.8763033,3.98047187 15,4.65103809 15,5.3671875 L15,7.75 L15.625,7.75 Z M6.25,5.3671875 L6.25,7.75 L13.75,7.75 L13.75,5.3671875 C13.75,4.28645293 13.4016962,3.37174854 12.7050781,2.62304688 C12.0084601,1.87434521 11.100266,1.5 9.98046875,1.5 C8.84765059,1.5 7.94271172,1.87760039 7.265625,2.6328125 C6.58853828,3.38802461 6.25,4.29947383 6.25,5.3671875 Z M16.875,17.75 L16.875,10.25 C16.875,9.91145664 16.7513033,9.61849082 16.5039062,9.37109375 C16.2565092,9.12369668 15.9635434,9 15.625,9 L4.375,9 C4.03645664,9 3.74349082,9.12369668 3.49609375,9.37109375 C3.24869668,9.61849082 3.125,9.91145664 3.125,10.25 L3.125,17.75 C3.125,18.0885434 3.24869668,18.3815092 3.49609375,18.6289062 C3.74349082,18.8763033 4.03645664,19 4.375,19 L15.625,19 C15.9635434,19 16.2565092,18.8763033 16.5039062,18.6289062 C16.7513033,18.3815092 16.875,18.0885434 16.875,17.75 Z" id="Lock---simple-line-icons"></path>
            <polygon id="done---material" points="8.83048301 16.4169589 14.2108408 11 14.9306619 11.7198211 8.83048301 17.82 6 14.989517 6.68322004 14.2696959"></polygon>
        </g>
    </g>
</svg>