<?xml version="1.0" encoding="UTF-8"?>
<svg width="20px" height="20px" viewBox="0 0 20 20" version="1.1" xmlns="http://www.w3.org/2000/svg" xmlns:xlink="http://www.w3.org/1999/xlink">
    <!-- Generator: Sketch 47 (45396) - http://www.bohemiancoding.com/sketch -->
    <title>icon/登录手机号</title>
    <desc>Created with Sketch.</desc>
    <defs></defs>
    <g id="Symbols" stroke="none" stroke-width="1" fill="none" fill-rule="evenodd">
        <g id="icon/登录手机号" fill="#000000">
            <path d="M16.25,0.25 C16.7708359,0.25 17.2135398,0.432289844 17.578125,0.796875 C17.9427102,1.16146016 18.125,1.60416406 18.125,2.125 L18.125,18.375 C18.125,18.8958359 17.9427102,19.3385398 17.578125,19.703125 C17.2135398,20.0677102 16.7708359,20.25 16.25,20.25 L3.75,20.25 C3.22916406,20.25 2.78646016,20.0677102 2.421875,19.703125 C2.05728984,19.3385398 1.875,18.8958359 1.875,18.375 L1.875,2.125 C1.875,1.60416406 2.05728984,1.16146016 2.421875,0.796875 C2.78646016,0.432289844 3.22916406,0.25 3.75,0.25 L16.25,0.25 Z M16.875,18.375 L16.875,2.125 C16.875,1.95572832 16.8131517,1.80924541 16.6894531,1.68554688 C16.5657546,1.56184834 16.4192717,1.5 16.25,1.5 L3.75,1.5 C3.58072832,1.5 3.43424541,1.56184834 3.31054687,1.68554688 C3.18684834,1.80924541 3.125,1.95572832 3.125,2.125 L3.125,18.375 C3.125,18.5442717 3.18684834,18.6907546 3.31054687,18.8144531 C3.43424541,18.9381517 3.58072832,19 3.75,19 L16.25,19 C16.4192717,19 16.5657546,18.9381517 16.6894531,18.8144531 C16.8131517,18.6907546 16.875,18.5442717 16.875,18.375 Z M10,15.875 C10.3385434,15.875 10.6315092,15.9986967 10.8789062,16.2460938 C11.1263033,16.4934908 11.25,16.7864566 11.25,17.125 C11.25,17.4635434 11.1263033,17.7565092 10.8789062,18.0039062 C10.6315092,18.2513033 10.3385434,18.375 10,18.375 C9.66145664,18.375 9.36849082,18.2513033 9.12109375,18.0039062 C8.87369668,17.7565092 8.75,17.4635434 8.75,17.125 C8.75,16.7864566 8.87369668,16.4934908 9.12109375,16.2460938 C9.36849082,15.9986967 9.66145664,15.875 10,15.875 Z M11.25,2.125 C11.4192717,2.125 11.5657546,2.18684834 11.6894531,2.31054688 C11.8131517,2.43424541 11.875,2.58072832 11.875,2.75 C11.875,2.91927168 11.8131517,3.06575459 11.6894531,3.18945312 C11.5657546,3.31315166 11.4192717,3.375 11.25,3.375 L8.75,3.375 C8.58072832,3.375 8.43424541,3.31315166 8.31054688,3.18945312 C8.18684834,3.06575459 8.125,2.91927168 8.125,2.75 C8.125,2.58072832 8.18684834,2.43424541 8.31054688,2.31054688 C8.43424541,2.18684834 8.58072832,2.125 8.75,2.125 L11.25,2.125 Z" id="Screen-tablet---simple-line-icons"></path>
        </g>
    </g>
</svg>