<?xml version="1.0" encoding="UTF-8"?>
<svg width="20px" height="20px" viewBox="0 0 20 20" version="1.1" xmlns="http://www.w3.org/2000/svg" xmlns:xlink="http://www.w3.org/1999/xlink">
    <!-- Generator: Sketch 47 (45396) - http://www.bohemiancoding.com/sketch -->
    <title>icon/通知 copy</title>
    <desc>Created with Sketch.</desc>
    <defs></defs>
    <g id="Symbols" stroke="none" stroke-width="1" fill="none" fill-rule="evenodd">
        <g id="icon/通知-copy" fill="#FFFFFF">
            <path d="M18.7878649,6.67676779 C18.7878649,6.34208062 18.5164845,6.07070022 18.1819122,6.07070022 L1.8183176,6.07070022 C1.48363043,6.07070022 1.21225003,6.34208062 1.21225003,6.67676779 L1.21225003,17.5857543 C1.21225003,17.9206712 1.48363043,18.1918218 1.8183176,18.1918218 L18.1819122,18.1918218 C18.5164845,18.1918218 18.7878649,17.9205563 18.7878649,17.5857543 L18.7878649,6.67676779 Z M7.24787876,4.85845019 L12.7522361,4.85845019 L10.0000574,1.72677555 L7.24787876,4.85845019 Z M20,6.07070022 L20,18.1918218 C20,18.8611962 19.4572392,19.403957 18.7878649,19.403957 L1.21225003,19.403957 C0.542760796,19.403957 0,18.8610813 0,18.1918218 L0,6.07070022 C0,5.40132588 0.542760796,4.85845019 1.21225003,4.85845019 L5.77585266,4.85845019 C5.76045682,4.65405318 5.82123592,4.44356678 5.95864953,4.28696581 L9.54093972,0.211204495 C9.78819231,-0.0704014982 10.1891735,-0.0704014982 10.436541,0.211204495 C10.4404474,0.215455585 10.4435495,0.220166252 10.4472262,0.224532236 L10.4590603,0.211204495 L14.0412356,4.28696581 C14.1787641,4.44356678 14.2395432,4.65405318 14.2241473,4.85845019 L18.7878649,4.85845019 C19.4572392,4.85845019 20,5.40132588 20,6.07070022 L20,6.07070022 Z M9.69696622,13.3433962 L4.24247299,13.3433962 C3.90778581,13.3433962 3.63640542,13.6146617 3.63640542,13.9495786 C3.63640542,14.2841509 3.90778581,14.5554164 4.24247299,14.5554164 L9.69696622,14.5554164 C10.0317683,14.5554164 10.3030338,14.2842658 10.3030338,13.9495786 C10.3030338,13.6146617 10.0317683,13.3433962 9.69696622,13.3433962 L9.69696622,13.3433962 Z M16.3635946,10.3130583 C16.3635946,10.6478604 16.0923291,10.919011 15.7576419,10.919011 L4.24247299,10.919011 C3.90778581,10.919011 3.63640542,10.6478604 3.63640542,10.3130583 C3.63640542,9.97848604 3.90778581,9.70699075 4.24247299,9.70699075 L15.7576419,9.70699075 C16.0923291,9.70699075 16.3635946,9.97837114 16.3635946,10.3130583 L16.3635946,10.3130583 Z" id="Fill-1"></path>
        </g>
    </g>
</svg>