<?xml version="1.0" encoding="UTF-8"?>
<svg width="20px" height="20px" viewBox="0 0 20 20" version="1.1" xmlns="http://www.w3.org/2000/svg" xmlns:xlink="http://www.w3.org/1999/xlink">
    <!-- Generator: Sketch 47 (45396) - http://www.bohemiancoding.com/sketch -->
    <title>icon/验证码</title>
    <desc>Created with Sketch.</desc>
    <defs></defs>
    <g id="Symbols" stroke="none" stroke-width="1" fill="none" fill-rule="evenodd">
        <g id="icon/验证码" fill-rule="nonzero" fill="#000000">
            <path d="M18.0365753,3.24793954 L18.5,3.28193038 L18.5,11.3023 C18.5,13.0682707 17.3022533,15.1564383 15.3155553,16.931686 C13.4606655,18.5916716 11.3294396,19.6166 9.99870838,19.6166 C6.78129493,19.6166 1.5,14.8280356 1.5,11.3047 L1.5,3.28159203 L1.96378675,3.24791312 C3.26238582,3.15361247 4.71869456,2.87734813 6.12256398,2.34146001 C7.56239602,1.79291667 8.78540604,1.16461972 9.73502051,0.575183912 L9.99809056,0.411893531 L10.2615031,0.574630832 C11.226267,1.17066573 12.4394981,1.7936058 13.877278,2.34139982 C15.2836074,2.8766347 16.7405009,3.15287633 18.0365753,3.24793954 Z M13.5214111,3.27593648 C12.1460856,2.7519376 10.9672877,2.16210432 9.99919364,1.58512257 C9.04123057,2.15772822 7.85448446,2.75175147 6.4788835,3.27582412 C5.13840083,3.78751622 3.76465434,4.07643998 2.5,4.20488705 L2.5,11.3047 C2.5,14.2527148 7.31291738,18.6166 9.99870838,18.6166 C11.0483242,18.6166 12.9612116,17.6966728 14.6489639,16.1862627 C16.4429531,14.5832132 17.5,12.7403434 17.5,11.3023 L17.5,4.20457476 C16.2376364,4.07558241 14.8638571,3.786858 13.5214111,3.27593648 Z M14.4720928,7.90006228 L9.43675844,12.8465378 C9.22846648,13.0511541 8.88512678,13.0511541 8.67388617,12.8465378 L6.15621897,10.3761967 C5.94792701,10.1714646 5.94792701,9.83429967 6.15621897,9.62667098 C6.36451094,9.42205476 6.70785064,9.42205476 6.91909124,9.62667098 L9.05532231,11.7252038 L13.7091026,7.15354907 C13.9175125,6.94881698 14.2608522,6.94881698 14.4720928,7.15354907 C14.6833334,7.35816529 14.6833334,7.69254945 14.4720928,7.90006228 Z" id="Combined-Shape"></path>
        </g>
    </g>
</svg>