<?xml version="1.0" encoding="UTF-8"?>
<svg width="45px" height="45px" viewBox="0 0 45 45" version="1.1" xmlns="http://www.w3.org/2000/svg" xmlns:xlink="http://www.w3.org/1999/xlink">
    <!-- Generator: Sketch 47 (45396) - http://www.bohemiancoding.com/sketch -->
    <title>Fill 1</title>
    <desc>Created with Sketch.</desc>
    <defs></defs>
    <g id="我的" stroke="none" stroke-width="1" fill="none" fill-rule="evenodd">
        <g id="6.0.0-个人中心" transform="translate(-354.000000, -1243.000000)" fill="#9B9B9B">
            <g id="icon/约球-copy-13" transform="translate(352.000000, 1241.000000)">
                <path d="M45.7098737,21.1770717 C45.2140295,21.1452606 44.7170317,21.129355 44.2202647,21.129355 C42.8388692,21.129355 41.4918529,21.273427 40.1766777,21.5069388 L39.8248106,20.0648361 C39.648531,19.2889222 38.8765001,18.8023047 38.0998545,18.9779572 C37.3227475,19.1538403 36.8359019,19.925605 37.0119508,20.7015189 C37.0151811,20.7165024 37.0188728,20.7314859 37.0227952,20.7462389 L37.368894,22.1666731 C35.6139426,22.7217536 33.9323642,23.4861418 32.3606144,24.4432407 L31.5052891,23.206988 C31.041286,22.560393 30.1402756,22.4121718 29.493071,22.8759682 C28.8615562,23.3282389 28.7025815,24.1988946 29.1331283,24.8450285 L29.9840697,26.0755184 C28.5394536,27.2117275 27.2348921,28.5150601 26.0976116,29.9583153 L24.8659615,29.1081755 C24.2032978,28.6672001 23.307825,28.8465408 22.8664337,29.5090413 C22.4358869,30.1549448 22.5950923,31.025831 23.2263764,31.4783322 L24.4637948,32.3326213 C23.5057935,33.9028904 22.7406845,35.5828847 22.1853114,37.3361829 L20.7633071,36.9904102 C19.9926605,36.7896315 19.2051705,37.2513533 19.0044333,38.0215044 C18.803696,38.7914249 19.2658532,39.5781731 20.0364997,39.7787213 C20.0512666,39.78264 20.0662642,39.7863283 20.0812618,39.7895555 L21.5247243,40.1413216 C21.2803786,41.4736991 21.1539372,42.8249788 21.1470152,44.1794858 C21.1470152,44.6794731 21.162705,45.1750807 21.1945461,45.6676915 C21.245538,46.4618162 21.9310442,47.0643828 22.7261484,47.0134389 C23.5210218,46.9624951 24.1239258,46.2776346 24.072934,45.4832794 C24.0452461,45.0494499 24.0311714,44.6144679 24.0311714,44.1794858 C24.0311714,43.0340561 24.1493064,41.9176713 24.3338924,40.8241074 L25.686677,41.1525915 C26.4575543,41.3531397 27.2450443,40.8914179 27.4455508,40.1214973 C27.6462881,39.3515767 27.1841309,38.5648286 26.4134844,38.3642804 C26.3987175,38.3603616 26.3837199,38.3566734 26.3687223,38.3534462 L25.0016323,38.0203518 C25.4617128,36.5911579 26.0874594,35.2414918 26.8389551,33.9690482 L27.9723131,34.7516471 C28.6352076,35.1926226 29.5304497,35.0128208 29.9718409,34.3505508 C30.4023878,33.7046474 30.2434131,32.8337612 29.6118982,32.3814905 L28.4697724,31.5935897 C28.9356213,31.0129221 29.4245434,30.4495431 29.9508443,29.9235076 C30.4771451,29.3977025 31.0410553,28.9094715 31.6220397,28.4438309 L32.4109141,29.5851113 C32.8751479,30.2314758 33.7761583,30.3799275 34.4233629,29.9161311 C35.0546471,29.4638604 35.2138525,28.5932047 34.7833056,27.9468402 L34.0001996,26.8145499 C35.2722278,26.0639926 36.6247817,25.438605 38.0553231,24.9789578 L38.3885009,26.3449905 C38.564319,27.1209045 39.3368114,27.607522 40.113457,27.4316389 C40.8903333,27.2557559 41.3774096,26.4839912 41.2013607,25.7080772 C41.1978997,25.6930937 41.1944387,25.6781103 41.1902856,25.6633573 L40.8614917,24.3120775 C41.9560867,24.1276654 43.0737549,24.0094112 44.2202647,24.0094112 C44.6584257,24.0094112 45.0940486,24.0239336 45.5252877,24.0513649 C46.321084,24.0783352 46.9885931,23.4557138 47.0155888,22.6604366 C47.0416616,21.8988146 46.469445,21.2485313 45.7098737,21.1770717 M3.84207809,26.892464 C5.22347354,26.892464 6.57048984,26.748392 7.88428067,26.5148802 L8.23591699,27.9569829 C8.41196588,28.7328969 9.18445828,29.2197448 9.96110385,29.0438618 C10.7379802,28.8679787 11.2248257,28.0964446 11.0487768,27.3203001 C11.0455466,27.3053166 11.0418549,27.2905636 11.0379324,27.2755802 L10.6918337,25.8551459 C12.4465543,25.2996044 14.1281327,24.5352162 15.7003439,23.5785784 L16.5554386,24.8148311 C17.0194416,25.461426 17.920452,25.6096473 18.5676566,25.1460813 C19.1991715,24.6935801 19.3583769,23.8229244 18.9275993,23.1767905 L18.0766579,21.9463007 C19.521274,20.8100916 20.8258356,19.506759 21.963116,18.0637342 L23.1947661,18.9136435 C23.8576605,19.354619 24.7529026,19.1750477 25.1942939,18.5127777 C25.6248407,17.8668743 25.4656353,16.9959881 24.8343512,16.5437174 L23.5971636,15.6891977 C24.5547034,14.1189286 25.3198124,12.4389343 25.8754162,10.6856361 L27.2974206,11.0314089 C28.0712974,11.2197397 28.8511732,10.7455701 29.0394509,9.97265282 C29.2277286,9.19950505 28.7533426,8.42036388 27.9794658,8.23226352 L26.5360033,7.88049742 C26.7711198,6.56679165 26.9153276,5.22104427 26.9153276,3.84071962 C26.9153276,3.04521187 26.2695073,2.4 25.4732495,2.4 C24.6767609,2.4 24.0311714,3.04521187 24.0311714,3.84071962 C24.0311714,4.98614934 23.9128056,6.10276467 23.7282196,7.19632849 L22.3770501,6.86784442 C21.6031733,6.67951355 20.8232975,7.15368319 20.6350198,7.92683097 C20.4467421,8.69974823 20.9211281,9.47888939 21.6950049,9.66698975 L23.0620949,9.99985361 C22.6020143,11.4142945 21.9857278,12.7729507 21.224772,14.0511572 L20.0897989,13.2674057 C19.4269044,12.8264302 18.5316624,13.0060015 18.0902711,13.6682715 C17.6597243,14.3144055 17.8189297,15.1850611 18.4502138,15.6375624 L19.5923396,16.4254631 C19.1267215,17.0061307 18.6377993,17.5695097 18.1114985,18.0953148 C17.5849669,18.6211198 17.0212875,19.1095814 16.4400723,19.5749914 L15.6511979,18.4339415 C15.1869641,17.7873465 14.2861845,17.6391253 13.6389798,18.1029218 C13.0076957,18.5551925 12.8484903,19.4258481 13.2790371,20.0719821 L14.0619125,21.204503 C12.790115,21.9550602 11.4373304,22.5802173 10.008404,23.0398645 L9.67522629,21.6740623 C9.49940813,20.8981483 8.72691574,20.4115309 7.95027016,20.5871834 C7.17339385,20.7630665 6.68631755,21.5348311 6.86236645,22.3107451 C6.86582744,22.3257286 6.86951916,22.3407121 6.87321088,22.355465 L7.20200468,23.7069753 C6.10602533,23.8927705 4.98858786,24.0107943 3.84207809,24.0107943 C3.04558952,24.0107943 2.4,24.6560061 2.4,25.4517444 C2.4,26.2472521 3.04558952,26.892464 3.84207809,26.892464" id="Fill-1"></path>
            </g>
        </g>
    </g>
</svg>