<?xml version="1.0" encoding="UTF-8"?>
<svg width="48px" height="48px" viewBox="0 0 48 48" version="1.1" xmlns="http://www.w3.org/2000/svg" xmlns:xlink="http://www.w3.org/1999/xlink">
    <!-- Generator: Sketch 47 (45396) - http://www.bohemiancoding.com/sketch -->
    <title>Fill 3</title>
    <desc>Created with Sketch.</desc>
    <defs></defs>
    <g id="我的" stroke="none" stroke-width="1" fill="none" fill-rule="evenodd">
        <g id="6.0.0-个人中心" transform="translate(-352.000000, -1241.000000)" fill="#4A4A4A">
            <g id="icon/约球-copy-13" transform="translate(352.000000, 1241.000000)">
                <path d="M38.8414152,38.84256 C35.0340593,42.64776 30.0188724,45 24.0181223,45 C18.0173722,45 12.9616202,42.64776 9.15258407,38.84256 C5.34810851,35.034 2.98549319,29.79288 2.98549319,24 C2.98549319,18.20712 5.33322665,12.966 9.13914239,9.15744 C13.0689136,5.21184 18.4098212,2.99568 23.9789974,3 C29.5491336,2.99568 34.8910014,5.21184 38.8219727,9.15744 C42.7675859,13.08888 44.984023,18.43032 44.9801825,24 C44.9801825,29.79288 42.6487711,35.034 38.8414152,38.84256 M0,24 C0.00312039005,37.23888 10.5164346,47.99712 24.0181223,48 C37.51981,47.99712 47.9971196,37.23888 48,24 C47.9985598,10.76088 37.2272134,0.00288 23.9881185,0 C10.7473434,0.00288 0.00312039005,10.76088 0,24 Z" id="Fill-3"></path>
            </g>
        </g>
    </g>
</svg>